<svg width="1051" height="1000" xmlns="http://www.w3.org/2000/svg" version="1.1">


<!-- internal style sheet -->
<style type="text/css"><![CDATA[
 rect.background{fill:white}
 rect{fill:none; stroke:rgb(25,25,25); stroke-width:2}
 text{font-family:Helvetica; text-anchor:middle; fill:rgb(25,25,25)}
 line{stroke:rgb(25,25,25); stroke-width:4}
 path{fill:none; stroke:rgb(25,25,25); stroke-width:2}
 circle{fill:white; stroke:black; stroke-width:2}

 path.p0{fill:rgb(0,102,255); stroke:rgb(25,25,25); stroke-width:2}
 path.ps0{fill:rgb(0,77,191); stroke:rgb(20,20,20); stroke-width:2}
 rect.r0{fill:rgb(0,102,255); stroke:rgb(25,25,25); stroke-width:2}
 path.p1{fill:rgb(0,255,102); stroke:rgb(25,25,25); stroke-width:2}
 path.ps1{fill:rgb(0,191,77); stroke:rgb(20,20,20); stroke-width:2}
 rect.r1{fill:rgb(0,255,102); stroke:rgb(25,25,25); stroke-width:2}
 path.p2{fill:rgb(204,255,0); stroke:rgb(25,25,25); stroke-width:2}
 path.ps2{fill:rgb(153,191,0); stroke:rgb(20,20,20); stroke-width:2}
 rect.r2{fill:rgb(204,255,0); stroke:rgb(25,25,25); stroke-width:2}
 path.p3{fill:rgb(255,0,0); stroke:rgb(25,25,25); stroke-width:2}
 path.ps3{fill:rgb(191,0,0); stroke:rgb(20,20,20); stroke-width:2}
 rect.r3{fill:rgb(255,0,0); stroke:rgb(25,25,25); stroke-width:2}
]]></style>

 <rect class="background" width="1051" height="1000"/>
  <!-- cells -->
  <path class="p1" d="M 967 500 L 883 240 L 793 305 L 857 500 L 967 500"/>
  <line x1="967" y1="500" x2="883" y2="240"/>
  <path class="p1" d="M 883 240 L 662 80 L 628 185 L 793 305 L 883 240"/>
  <line x1="883" y1="240" x2="662" y2="80"/>
  <path class="p1" d="M 662 80 L 389 80 L 423 185 L 628 185 L 662 80"/>
  <line x1="662" y1="80" x2="389" y2="80"/>
  <path class="p1" d="M 389 80 L 168 240 L 258 305 L 423 185 L 389 80"/>
  <line x1="389" y1="80" x2="168" y2="240"/>
  <path class="p1" d="M 168 240 L 84 500 L 194 500 L 258 305 L 168 240"/>
  <line x1="168" y1="240" x2="84" y2="500"/>
  <path class="p1" d="M 84 500 L 168 760 L 258 695 L 194 500 L 84 500"/>
  <line x1="84" y1="500" x2="168" y2="760"/>
  <path class="p1" d="M 168 760 L 389 920 L 423 815 L 258 695 L 168 760"/>
  <line x1="168" y1="760" x2="389" y2="920"/>
  <path class="p1" d="M 389 920 L 662 920 L 628 815 L 423 815 L 389 920"/>
  <line x1="389" y1="920" x2="662" y2="920"/>
  <path class="p1" d="M 662 920 L 883 760 L 793 695 L 628 815 L 662 920"/>
  <line x1="662" y1="920" x2="883" y2="760"/>
  <path class="p1" d="M 883 760 L 967 500 L 857 500 L 793 695 L 883 760"/>
  <line x1="883" y1="760" x2="967" y2="500"/>
  <path class="p2" d="M 857 500 L 840 398 L 788 415 L 801 500 L 857 500"/>
  <path class="p2" d="M 840 398 L 793 305 L 749 338 L 788 415 L 840 398"/>
  <path class="p2" d="M 793 305 L 720 232 L 688 277 L 749 338 L 793 305"/>
  <path class="p2" d="M 720 232 L 628 185 L 611 238 L 688 277 L 720 232"/>
  <path class="p2" d="M 628 185 L 526 169 L 526 224 L 611 238 L 628 185"/>
  <path class="p2" d="M 526 169 L 423 185 L 440 238 L 526 224 L 526 169"/>
  <path class="p2" d="M 423 185 L 331 232 L 363 277 L 440 238 L 423 185"/>
  <path class="p2" d="M 331 232 L 258 305 L 302 338 L 363 277 L 331 232"/>
  <path class="p2" d="M 258 305 L 211 398 L 263 415 L 302 338 L 258 305"/>
  <path class="p2" d="M 211 398 L 194 500 L 250 500 L 263 415 L 211 398"/>
  <path class="p2" d="M 194 500 L 211 602 L 263 585 L 250 500 L 194 500"/>
  <path class="p2" d="M 211 602 L 258 695 L 302 662 L 263 585 L 211 602"/>
  <path class="p2" d="M 258 695 L 331 768 L 363 723 L 302 662 L 258 695"/>
  <path class="p2" d="M 331 768 L 423 815 L 440 762 L 363 723 L 331 768"/>
  <path class="p2" d="M 423 815 L 526 831 L 526 776 L 440 762 L 423 815"/>
  <path class="p2" d="M 526 831 L 628 815 L 611 762 L 526 776 L 526 831"/>
  <path class="p2" d="M 628 815 L 720 768 L 688 723 L 611 762 L 628 815"/>
  <path class="p2" d="M 720 768 L 793 695 L 749 662 L 688 723 L 720 768"/>
  <path class="p2" d="M 793 695 L 840 602 L 788 585 L 749 662 L 793 695"/>
  <path class="p2" d="M 840 602 L 857 500 L 801 500 L 788 585 L 840 602"/>
  <path class="p3" d="M 801 500 L 798 457 L 771 461 L 774 500 L 801 500"/>
  <path class="p3" d="M 798 457 L 788 415 L 762 423 L 771 461 L 798 457"/>
  <path class="p3" d="M 774 500 L 771 461 L 743 465 L 746 500 L 774 500"/>
  <line x1="746" y1="500" x2="743" y2="465"/>
  <path class="p3" d="M 771 461 L 762 423 L 735 432 L 743 465 L 771 461"/>
  <line x1="743" y1="465" x2="735" y2="432"/>
  <path class="p3" d="M 788 415 L 771 375 L 747 387 L 762 423 L 788 415"/>
  <path class="p3" d="M 771 375 L 749 338 L 726 354 L 747 387 L 771 375"/>
  <path class="p3" d="M 762 423 L 747 387 L 722 400 L 735 432 L 762 423"/>
  <line x1="735" y1="432" x2="722" y2="400"/>
  <path class="p3" d="M 747 387 L 726 354 L 704 370 L 722 400 L 747 387"/>
  <line x1="722" y1="400" x2="704" y2="370"/>
  <path class="p3" d="M 749 338 L 721 305 L 701 324 L 726 354 L 749 338"/>
  <path class="p3" d="M 721 305 L 688 277 L 671 299 L 701 324 L 721 305"/>
  <path class="p3" d="M 726 354 L 701 324 L 682 344 L 704 370 L 726 354"/>
  <line x1="704" y1="370" x2="682" y2="344"/>
  <path class="p3" d="M 701 324 L 671 299 L 655 321 L 682 344 L 701 324"/>
  <line x1="682" y1="344" x2="655" y2="321"/>
  <path class="p3" d="M 688 277 L 651 254 L 638 279 L 671 299 L 688 277"/>
  <path class="p3" d="M 651 254 L 611 238 L 602 264 L 638 279 L 651 254"/>
  <path class="p3" d="M 671 299 L 638 279 L 626 303 L 655 321 L 671 299"/>
  <line x1="655" y1="321" x2="626" y2="303"/>
  <path class="p3" d="M 638 279 L 602 264 L 594 290 L 626 303 L 638 279"/>
  <line x1="626" y1="303" x2="594" y2="290"/>
  <path class="p3" d="M 611 238 L 569 227 L 564 255 L 602 264 L 611 238"/>
  <path class="p3" d="M 569 227 L 526 224 L 526 252 L 564 255 L 569 227"/>
  <path class="p3" d="M 602 264 L 564 255 L 560 282 L 594 290 L 602 264"/>
  <line x1="594" y1="290" x2="560" y2="282"/>
  <path class="p3" d="M 564 255 L 526 252 L 526 279 L 560 282 L 564 255"/>
  <line x1="560" y1="282" x2="526" y2="279"/>
  <path class="p3" d="M 526 224 L 482 227 L 487 255 L 526 252 L 526 224"/>
  <path class="p3" d="M 482 227 L 440 238 L 449 264 L 487 255 L 482 227"/>
  <path class="p3" d="M 526 252 L 487 255 L 491 282 L 526 279 L 526 252"/>
  <line x1="526" y1="279" x2="491" y2="282"/>
  <path class="p3" d="M 487 255 L 449 264 L 457 290 L 491 282 L 487 255"/>
  <line x1="491" y1="282" x2="457" y2="290"/>
  <path class="p3" d="M 440 238 L 400 254 L 413 279 L 449 264 L 440 238"/>
  <path class="p3" d="M 400 254 L 363 277 L 380 299 L 413 279 L 400 254"/>
  <path class="p3" d="M 449 264 L 413 279 L 425 303 L 457 290 L 449 264"/>
  <line x1="457" y1="290" x2="425" y2="303"/>
  <path class="p3" d="M 413 279 L 380 299 L 396 321 L 425 303 L 413 279"/>
  <line x1="425" y1="303" x2="396" y2="321"/>
  <path class="p3" d="M 363 277 L 330 305 L 350 324 L 380 299 L 363 277"/>
  <path class="p3" d="M 330 305 L 302 338 L 325 354 L 350 324 L 330 305"/>
  <path class="p3" d="M 380 299 L 350 324 L 369 344 L 396 321 L 380 299"/>
  <line x1="396" y1="321" x2="369" y2="344"/>
  <path class="p3" d="M 350 324 L 325 354 L 347 370 L 369 344 L 350 324"/>
  <line x1="369" y1="344" x2="347" y2="370"/>
  <path class="p3" d="M 302 338 L 280 375 L 304 387 L 325 354 L 302 338"/>
  <path class="p3" d="M 280 375 L 263 415 L 289 423 L 304 387 L 280 375"/>
  <path class="p3" d="M 325 354 L 304 387 L 329 400 L 347 370 L 325 354"/>
  <line x1="347" y1="370" x2="329" y2="400"/>
  <path class="p3" d="M 304 387 L 289 423 L 316 432 L 329 400 L 304 387"/>
  <line x1="329" y1="400" x2="316" y2="432"/>
  <path class="p3" d="M 263 415 L 253 457 L 280 461 L 289 423 L 263 415"/>
  <path class="p3" d="M 253 457 L 250 500 L 277 500 L 280 461 L 253 457"/>
  <path class="p3" d="M 289 423 L 280 461 L 308 465 L 316 432 L 289 423"/>
  <line x1="316" y1="432" x2="308" y2="465"/>
  <path class="p3" d="M 280 461 L 277 500 L 305 500 L 308 465 L 280 461"/>
  <line x1="308" y1="465" x2="305" y2="500"/>
  <path class="p3" d="M 250 500 L 253 543 L 280 539 L 277 500 L 250 500"/>
  <path class="p3" d="M 253 543 L 263 585 L 289 577 L 280 539 L 253 543"/>
  <path class="p3" d="M 277 500 L 280 539 L 308 535 L 305 500 L 277 500"/>
  <line x1="305" y1="500" x2="308" y2="535"/>
  <path class="p3" d="M 280 539 L 289 577 L 316 568 L 308 535 L 280 539"/>
  <line x1="308" y1="535" x2="316" y2="568"/>
  <path class="p3" d="M 263 585 L 280 625 L 304 613 L 289 577 L 263 585"/>
  <path class="p3" d="M 280 625 L 302 662 L 325 646 L 304 613 L 280 625"/>
  <path class="p3" d="M 289 577 L 304 613 L 329 600 L 316 568 L 289 577"/>
  <line x1="316" y1="568" x2="329" y2="600"/>
  <path class="p3" d="M 304 613 L 325 646 L 347 630 L 329 600 L 304 613"/>
  <line x1="329" y1="600" x2="347" y2="630"/>
  <path class="p3" d="M 302 662 L 330 695 L 350 676 L 325 646 L 302 662"/>
  <path class="p3" d="M 330 695 L 363 723 L 380 701 L 350 676 L 330 695"/>
  <path class="p3" d="M 325 646 L 350 676 L 369 656 L 347 630 L 325 646"/>
  <line x1="347" y1="630" x2="369" y2="656"/>
  <path class="p3" d="M 350 676 L 380 701 L 396 679 L 369 656 L 350 676"/>
  <line x1="369" y1="656" x2="396" y2="679"/>
  <path class="p3" d="M 363 723 L 400 746 L 413 721 L 380 701 L 363 723"/>
  <path class="p3" d="M 400 746 L 440 762 L 449 736 L 413 721 L 400 746"/>
  <path class="p3" d="M 380 701 L 413 721 L 425 697 L 396 679 L 380 701"/>
  <line x1="396" y1="679" x2="425" y2="697"/>
  <path class="p3" d="M 413 721 L 449 736 L 457 710 L 425 697 L 413 721"/>
  <line x1="425" y1="697" x2="457" y2="710"/>
  <path class="p3" d="M 440 762 L 482 773 L 487 745 L 449 736 L 440 762"/>
  <path class="p3" d="M 482 773 L 526 776 L 526 748 L 487 745 L 482 773"/>
  <path class="p3" d="M 449 736 L 487 745 L 491 718 L 457 710 L 449 736"/>
  <line x1="457" y1="710" x2="491" y2="718"/>
  <path class="p3" d="M 487 745 L 526 748 L 526 721 L 491 718 L 487 745"/>
  <line x1="491" y1="718" x2="526" y2="721"/>
  <path class="p3" d="M 526 776 L 569 773 L 564 745 L 526 748 L 526 776"/>
  <path class="p3" d="M 569 773 L 611 762 L 602 736 L 564 745 L 569 773"/>
  <path class="p3" d="M 526 748 L 564 745 L 560 718 L 526 721 L 526 748"/>
  <line x1="526" y1="721" x2="560" y2="718"/>
  <path class="p3" d="M 564 745 L 602 736 L 594 710 L 560 718 L 564 745"/>
  <line x1="560" y1="718" x2="594" y2="710"/>
  <path class="p3" d="M 611 762 L 651 746 L 638 721 L 602 736 L 611 762"/>
  <path class="p3" d="M 651 746 L 688 723 L 671 701 L 638 721 L 651 746"/>
  <path class="p3" d="M 602 736 L 638 721 L 626 697 L 594 710 L 602 736"/>
  <line x1="594" y1="710" x2="626" y2="697"/>
  <path class="p3" d="M 638 721 L 671 701 L 655 679 L 626 697 L 638 721"/>
  <line x1="626" y1="697" x2="655" y2="679"/>
  <path class="p3" d="M 688 723 L 721 695 L 701 676 L 671 701 L 688 723"/>
  <path class="p3" d="M 721 695 L 749 662 L 726 646 L 701 676 L 721 695"/>
  <path class="p3" d="M 671 701 L 701 676 L 682 656 L 655 679 L 671 701"/>
  <line x1="655" y1="679" x2="682" y2="656"/>
  <path class="p3" d="M 701 676 L 726 646 L 704 630 L 682 656 L 701 676"/>
  <line x1="682" y1="656" x2="704" y2="630"/>
  <path class="p3" d="M 749 662 L 771 625 L 747 613 L 726 646 L 749 662"/>
  <path class="p3" d="M 771 625 L 788 585 L 762 577 L 747 613 L 771 625"/>
  <path class="p3" d="M 726 646 L 747 613 L 722 600 L 704 630 L 726 646"/>
  <line x1="704" y1="630" x2="722" y2="600"/>
  <path class="p3" d="M 747 613 L 762 577 L 735 568 L 722 600 L 747 613"/>
  <line x1="722" y1="600" x2="735" y2="568"/>
  <path class="p3" d="M 788 585 L 798 543 L 771 539 L 762 577 L 788 585"/>
  <path class="p3" d="M 798 543 L 801 500 L 774 500 L 771 539 L 798 543"/>
  <path class="p3" d="M 762 577 L 771 539 L 743 535 L 735 568 L 762 577"/>
  <line x1="735" y1="568" x2="743" y2="535"/>
  <path class="p3" d="M 771 539 L 774 500 L 746 500 L 743 535 L 771 539"/>
  <line x1="743" y1="535" x2="746" y2="500"/>

</svg>