<svg width="1051" height="1000" xmlns="http://www.w3.org/2000/svg" version="1.1">


<!-- internal style sheet -->
<style type="text/css"><![CDATA[
 rect.background{fill:white}
 rect{fill:none; stroke:rgb(25,25,25); stroke-width:2}
 text{font-family:Helvetica; text-anchor:middle; fill:rgb(25,25,25)}
 line{stroke:rgb(25,25,25); stroke-width:4}
 path{fill:none; stroke:rgb(25,25,25); stroke-width:2}
 circle{fill:white; stroke:black; stroke-width:2}

 path.p0{fill:rgb(0,102,255); stroke:rgb(25,25,25); stroke-width:2}
 path.ps0{fill:rgb(0,77,191); stroke:rgb(20,20,20); stroke-width:2}
 rect.r0{fill:rgb(0,102,255); stroke:rgb(25,25,25); stroke-width:2}
 path.p1{fill:rgb(0,255,224); stroke:rgb(25,25,25); stroke-width:2}
 path.ps1{fill:rgb(0,191,168); stroke:rgb(20,20,20); stroke-width:2}
 rect.r1{fill:rgb(0,255,224); stroke:rgb(25,25,25); stroke-width:2}
 path.p2{fill:rgb(0,255,41); stroke:rgb(25,25,25); stroke-width:2}
 path.ps2{fill:rgb(0,191,31); stroke:rgb(20,20,20); stroke-width:2}
 rect.r2{fill:rgb(0,255,41); stroke:rgb(25,25,25); stroke-width:2}
 path.p3{fill:rgb(143,255,0); stroke:rgb(25,25,25); stroke-width:2}
 path.ps3{fill:rgb(107,191,0); stroke:rgb(20,20,20); stroke-width:2}
 rect.r3{fill:rgb(143,255,0); stroke:rgb(25,25,25); stroke-width:2}
 path.p4{fill:rgb(255,184,0); stroke:rgb(25,25,25); stroke-width:2}
 path.ps4{fill:rgb(191,138,0); stroke:rgb(20,20,20); stroke-width:2}
 rect.r4{fill:rgb(255,184,0); stroke:rgb(25,25,25); stroke-width:2}
 path.p5{fill:rgb(255,0,0); stroke:rgb(25,25,25); stroke-width:2}
 path.ps5{fill:rgb(191,0,0); stroke:rgb(20,20,20); stroke-width:2}
 rect.r5{fill:rgb(255,0,0); stroke:rgb(25,25,25); stroke-width:2}
]]></style>

 <rect class="background" width="1051" height="1000"/>
  <!-- cells -->
  <path class="p1" d="M 967 500 L 883 240 L 793 305 L 857 500 L 967 500"/>
  <line x1="967" y1="500" x2="883" y2="240"/>
  <path class="p1" d="M 883 240 L 662 80 L 628 185 L 793 305 L 883 240"/>
  <line x1="883" y1="240" x2="662" y2="80"/>
  <path class="p1" d="M 662 80 L 389 80 L 423 185 L 628 185 L 662 80"/>
  <line x1="662" y1="80" x2="389" y2="80"/>
  <path class="p1" d="M 389 80 L 168 240 L 258 305 L 423 185 L 389 80"/>
  <line x1="389" y1="80" x2="168" y2="240"/>
  <path class="p1" d="M 168 240 L 84 500 L 194 500 L 258 305 L 168 240"/>
  <line x1="168" y1="240" x2="84" y2="500"/>
  <path class="p1" d="M 84 500 L 168 760 L 258 695 L 194 500 L 84 500"/>
  <line x1="84" y1="500" x2="168" y2="760"/>
  <path class="p1" d="M 168 760 L 389 920 L 423 815 L 258 695 L 168 760"/>
  <line x1="168" y1="760" x2="389" y2="920"/>
  <path class="p1" d="M 389 920 L 662 920 L 628 815 L 423 815 L 389 920"/>
  <line x1="389" y1="920" x2="662" y2="920"/>
  <path class="p1" d="M 662 920 L 883 760 L 793 695 L 628 815 L 662 920"/>
  <line x1="662" y1="920" x2="883" y2="760"/>
  <path class="p1" d="M 883 760 L 967 500 L 857 500 L 793 695 L 883 760"/>
  <line x1="883" y1="760" x2="967" y2="500"/>
  <path class="p2" d="M 857 500 L 840 398 L 788 415 L 801 500 L 857 500"/>
  <path class="p2" d="M 840 398 L 793 305 L 749 338 L 788 415 L 840 398"/>
  <path class="p2" d="M 793 305 L 720 232 L 688 277 L 749 338 L 793 305"/>
  <path class="p2" d="M 720 232 L 628 185 L 611 238 L 688 277 L 720 232"/>
  <path class="p2" d="M 628 185 L 526 169 L 526 224 L 611 238 L 628 185"/>
  <path class="p2" d="M 526 169 L 423 185 L 440 238 L 526 224 L 526 169"/>
  <path class="p2" d="M 423 185 L 331 232 L 363 277 L 440 238 L 423 185"/>
  <path class="p2" d="M 331 232 L 258 305 L 302 338 L 363 277 L 331 232"/>
  <path class="p2" d="M 258 305 L 211 398 L 263 415 L 302 338 L 258 305"/>
  <path class="p2" d="M 211 398 L 194 500 L 250 500 L 263 415 L 211 398"/>
  <path class="p2" d="M 194 500 L 211 602 L 263 585 L 250 500 L 194 500"/>
  <path class="p2" d="M 211 602 L 258 695 L 302 662 L 263 585 L 211 602"/>
  <path class="p2" d="M 258 695 L 331 768 L 363 723 L 302 662 L 258 695"/>
  <path class="p2" d="M 331 768 L 423 815 L 440 762 L 363 723 L 331 768"/>
  <path class="p2" d="M 423 815 L 526 831 L 526 776 L 440 762 L 423 815"/>
  <path class="p2" d="M 526 831 L 628 815 L 611 762 L 526 776 L 526 831"/>
  <path class="p2" d="M 628 815 L 720 768 L 688 723 L 611 762 L 628 815"/>
  <path class="p2" d="M 720 768 L 793 695 L 749 662 L 688 723 L 720 768"/>
  <path class="p2" d="M 793 695 L 840 602 L 788 585 L 749 662 L 793 695"/>
  <path class="p2" d="M 840 602 L 857 500 L 801 500 L 788 585 L 840 602"/>
  <path class="p3" d="M 801 500 L 798 457 L 771 461 L 774 500 L 801 500"/>
  <path class="p3" d="M 798 457 L 788 415 L 762 423 L 771 461 L 798 457"/>
  <path class="p3" d="M 788 415 L 771 375 L 747 387 L 762 423 L 788 415"/>
  <path class="p3" d="M 771 375 L 749 338 L 726 354 L 747 387 L 771 375"/>
  <path class="p3" d="M 749 338 L 721 305 L 701 324 L 726 354 L 749 338"/>
  <path class="p3" d="M 721 305 L 688 277 L 671 299 L 701 324 L 721 305"/>
  <path class="p3" d="M 688 277 L 651 254 L 638 279 L 671 299 L 688 277"/>
  <path class="p3" d="M 651 254 L 611 238 L 602 264 L 638 279 L 651 254"/>
  <path class="p3" d="M 611 238 L 569 227 L 564 255 L 602 264 L 611 238"/>
  <path class="p3" d="M 569 227 L 526 224 L 526 252 L 564 255 L 569 227"/>
  <path class="p3" d="M 526 224 L 482 227 L 487 255 L 526 252 L 526 224"/>
  <path class="p3" d="M 482 227 L 440 238 L 449 264 L 487 255 L 482 227"/>
  <path class="p3" d="M 440 238 L 400 254 L 413 279 L 449 264 L 440 238"/>
  <path class="p3" d="M 400 254 L 363 277 L 380 299 L 413 279 L 400 254"/>
  <path class="p3" d="M 363 277 L 330 305 L 350 324 L 380 299 L 363 277"/>
  <path class="p3" d="M 330 305 L 302 338 L 325 354 L 350 324 L 330 305"/>
  <path class="p3" d="M 302 338 L 280 375 L 304 387 L 325 354 L 302 338"/>
  <path class="p3" d="M 280 375 L 263 415 L 289 423 L 304 387 L 280 375"/>
  <path class="p3" d="M 263 415 L 253 457 L 280 461 L 289 423 L 263 415"/>
  <path class="p3" d="M 253 457 L 250 500 L 277 500 L 280 461 L 253 457"/>
  <path class="p3" d="M 250 500 L 253 543 L 280 539 L 277 500 L 250 500"/>
  <path class="p3" d="M 253 543 L 263 585 L 289 577 L 280 539 L 253 543"/>
  <path class="p3" d="M 263 585 L 280 625 L 304 613 L 289 577 L 263 585"/>
  <path class="p3" d="M 280 625 L 302 662 L 325 646 L 304 613 L 280 625"/>
  <path class="p3" d="M 302 662 L 330 695 L 350 676 L 325 646 L 302 662"/>
  <path class="p3" d="M 330 695 L 363 723 L 380 701 L 350 676 L 330 695"/>
  <path class="p3" d="M 363 723 L 400 746 L 413 721 L 380 701 L 363 723"/>
  <path class="p3" d="M 400 746 L 440 762 L 449 736 L 413 721 L 400 746"/>
  <path class="p3" d="M 440 762 L 482 773 L 487 745 L 449 736 L 440 762"/>
  <path class="p3" d="M 482 773 L 526 776 L 526 748 L 487 745 L 482 773"/>
  <path class="p3" d="M 526 776 L 569 773 L 564 745 L 526 748 L 526 776"/>
  <path class="p3" d="M 569 773 L 611 762 L 602 736 L 564 745 L 569 773"/>
  <path class="p3" d="M 611 762 L 651 746 L 638 721 L 602 736 L 611 762"/>
  <path class="p3" d="M 651 746 L 688 723 L 671 701 L 638 721 L 651 746"/>
  <path class="p3" d="M 688 723 L 721 695 L 701 676 L 671 701 L 688 723"/>
  <path class="p3" d="M 721 695 L 749 662 L 726 646 L 701 676 L 721 695"/>
  <path class="p3" d="M 749 662 L 771 625 L 747 613 L 726 646 L 749 662"/>
  <path class="p3" d="M 771 625 L 788 585 L 762 577 L 747 613 L 771 625"/>
  <path class="p3" d="M 788 585 L 798 543 L 771 539 L 762 577 L 788 585"/>
  <path class="p3" d="M 798 543 L 801 500 L 774 500 L 771 539 L 798 543"/>
  <path class="p4" d="M 774 500 L 773 481 L 759 482 L 760 500 L 774 500"/>
  <path class="p4" d="M 773 481 L 771 461 L 757 463 L 759 482 L 773 481"/>
  <path class="p4" d="M 771 461 L 767 442 L 754 445 L 757 463 L 771 461"/>
  <path class="p4" d="M 767 442 L 762 423 L 749 428 L 754 445 L 767 442"/>
  <path class="p4" d="M 762 423 L 755 405 L 742 410 L 749 428 L 762 423"/>
  <path class="p4" d="M 755 405 L 747 387 L 734 393 L 742 410 L 755 405"/>
  <path class="p4" d="M 747 387 L 737 370 L 725 377 L 734 393 L 747 387"/>
  <path class="p4" d="M 737 370 L 726 354 L 715 362 L 725 377 L 737 370"/>
  <path class="p4" d="M 726 354 L 714 339 L 704 348 L 715 362 L 726 354"/>
  <path class="p4" d="M 714 339 L 701 324 L 691 334 L 704 348 L 714 339"/>
  <path class="p4" d="M 701 324 L 687 311 L 678 322 L 691 334 L 701 324"/>
  <path class="p4" d="M 687 311 L 671 299 L 663 310 L 678 322 L 687 311"/>
  <path class="p4" d="M 671 299 L 655 288 L 648 300 L 663 310 L 671 299"/>
  <path class="p4" d="M 655 288 L 638 279 L 632 291 L 648 300 L 655 288"/>
  <path class="p4" d="M 638 279 L 621 271 L 615 283 L 632 291 L 638 279"/>
  <path class="p4" d="M 621 271 L 602 264 L 598 277 L 615 283 L 621 271"/>
  <path class="p4" d="M 602 264 L 583 258 L 580 272 L 598 277 L 602 264"/>
  <path class="p4" d="M 583 258 L 564 255 L 562 268 L 580 272 L 583 258"/>
  <path class="p4" d="M 564 255 L 545 252 L 544 266 L 562 268 L 564 255"/>
  <path class="p4" d="M 545 252 L 526 252 L 526 265 L 544 266 L 545 252"/>
  <path class="p4" d="M 526 252 L 506 252 L 507 266 L 526 265 L 526 252"/>
  <path class="p4" d="M 506 252 L 487 255 L 489 268 L 507 266 L 506 252"/>
  <path class="p4" d="M 487 255 L 468 258 L 471 272 L 489 268 L 487 255"/>
  <path class="p4" d="M 468 258 L 449 264 L 453 277 L 471 272 L 468 258"/>
  <path class="p4" d="M 449 264 L 430 271 L 436 283 L 453 277 L 449 264"/>
  <path class="p4" d="M 430 271 L 413 279 L 419 291 L 436 283 L 430 271"/>
  <path class="p4" d="M 413 279 L 396 288 L 403 300 L 419 291 L 413 279"/>
  <path class="p4" d="M 396 288 L 380 299 L 388 310 L 403 300 L 396 288"/>
  <path class="p4" d="M 380 299 L 364 311 L 373 322 L 388 310 L 380 299"/>
  <path class="p4" d="M 364 311 L 350 324 L 360 334 L 373 322 L 364 311"/>
  <path class="p4" d="M 350 324 L 337 339 L 347 348 L 360 334 L 350 324"/>
  <path class="p4" d="M 337 339 L 325 354 L 336 362 L 347 348 L 337 339"/>
  <path class="p4" d="M 325 354 L 314 370 L 326 377 L 336 362 L 325 354"/>
  <path class="p4" d="M 314 370 L 304 387 L 317 393 L 326 377 L 314 370"/>
  <path class="p4" d="M 304 387 L 296 405 L 309 410 L 317 393 L 304 387"/>
  <path class="p4" d="M 296 405 L 289 423 L 302 428 L 309 410 L 296 405"/>
  <path class="p4" d="M 289 423 L 284 442 L 297 445 L 302 428 L 289 423"/>
  <path class="p4" d="M 284 442 L 280 461 L 294 463 L 297 445 L 284 442"/>
  <path class="p4" d="M 280 461 L 278 481 L 292 482 L 294 463 L 280 461"/>
  <path class="p4" d="M 278 481 L 277 500 L 291 500 L 292 482 L 278 481"/>
  <path class="p4" d="M 277 500 L 278 519 L 292 518 L 291 500 L 277 500"/>
  <path class="p4" d="M 278 519 L 280 539 L 294 537 L 292 518 L 278 519"/>
  <path class="p4" d="M 280 539 L 284 558 L 297 555 L 294 537 L 280 539"/>
  <path class="p4" d="M 284 558 L 289 577 L 302 572 L 297 555 L 284 558"/>
  <path class="p4" d="M 289 577 L 296 595 L 309 590 L 302 572 L 289 577"/>
  <path class="p4" d="M 296 595 L 304 613 L 317 607 L 309 590 L 296 595"/>
  <path class="p4" d="M 304 613 L 314 630 L 326 623 L 317 607 L 304 613"/>
  <path class="p4" d="M 314 630 L 325 646 L 336 638 L 326 623 L 314 630"/>
  <path class="p4" d="M 325 646 L 337 661 L 347 652 L 336 638 L 325 646"/>
  <path class="p4" d="M 337 661 L 350 676 L 360 666 L 347 652 L 337 661"/>
  <path class="p4" d="M 350 676 L 364 689 L 373 678 L 360 666 L 350 676"/>
  <path class="p4" d="M 364 689 L 380 701 L 388 690 L 373 678 L 364 689"/>
  <path class="p4" d="M 380 701 L 396 712 L 403 700 L 388 690 L 380 701"/>
  <path class="p4" d="M 396 712 L 413 721 L 419 709 L 403 700 L 396 712"/>
  <path class="p4" d="M 413 721 L 430 729 L 436 717 L 419 709 L 413 721"/>
  <path class="p4" d="M 430 729 L 449 736 L 453 723 L 436 717 L 430 729"/>
  <path class="p4" d="M 449 736 L 468 742 L 471 728 L 453 723 L 449 736"/>
  <path class="p4" d="M 468 742 L 487 745 L 489 732 L 471 728 L 468 742"/>
  <path class="p4" d="M 487 745 L 506 748 L 507 734 L 489 732 L 487 745"/>
  <path class="p4" d="M 506 748 L 526 748 L 526 735 L 507 734 L 506 748"/>
  <path class="p4" d="M 526 748 L 545 748 L 544 734 L 526 735 L 526 748"/>
  <path class="p4" d="M 545 748 L 564 745 L 562 732 L 544 734 L 545 748"/>
  <path class="p4" d="M 564 745 L 583 742 L 580 728 L 562 732 L 564 745"/>
  <path class="p4" d="M 583 742 L 602 736 L 598 723 L 580 728 L 583 742"/>
  <path class="p4" d="M 602 736 L 621 729 L 615 717 L 598 723 L 602 736"/>
  <path class="p4" d="M 621 729 L 638 721 L 632 709 L 615 717 L 621 729"/>
  <path class="p4" d="M 638 721 L 655 712 L 648 700 L 632 709 L 638 721"/>
  <path class="p4" d="M 655 712 L 671 701 L 663 690 L 648 700 L 655 712"/>
  <path class="p4" d="M 671 701 L 687 689 L 678 678 L 663 690 L 671 701"/>
  <path class="p4" d="M 687 689 L 701 676 L 691 666 L 678 678 L 687 689"/>
  <path class="p4" d="M 701 676 L 714 661 L 704 652 L 691 666 L 701 676"/>
  <path class="p4" d="M 714 661 L 726 646 L 715 638 L 704 652 L 714 661"/>
  <path class="p4" d="M 726 646 L 737 630 L 725 623 L 715 638 L 726 646"/>
  <path class="p4" d="M 737 630 L 747 613 L 734 607 L 725 623 L 737 630"/>
  <path class="p4" d="M 747 613 L 755 595 L 742 590 L 734 607 L 747 613"/>
  <path class="p4" d="M 755 595 L 762 577 L 749 572 L 742 590 L 755 595"/>
  <path class="p4" d="M 762 577 L 767 558 L 754 555 L 749 572 L 762 577"/>
  <path class="p4" d="M 767 558 L 771 539 L 757 537 L 754 555 L 767 558"/>
  <path class="p4" d="M 771 539 L 773 519 L 759 518 L 757 537 L 771 539"/>
  <path class="p4" d="M 773 519 L 774 500 L 760 500 L 759 518 L 773 519"/>
  <path class="p5" d="M 760 500 L 760 491 L 753 491 L 753 500 L 760 500"/>
  <path class="p5" d="M 760 491 L 759 482 L 752 482 L 753 491 L 760 491"/>
  <path class="p5" d="M 753 500 L 753 491 L 746 491 L 746 500 L 753 500"/>
  <line x1="746" y1="500" x2="746" y2="491"/>
  <path class="p5" d="M 753 491 L 752 482 L 746 483 L 746 491 L 753 491"/>
  <line x1="746" y1="491" x2="746" y2="483"/>
  <path class="p5" d="M 759 482 L 758 472 L 752 473 L 752 482 L 759 482"/>
  <path class="p5" d="M 758 472 L 757 463 L 750 464 L 752 473 L 758 472"/>
  <path class="p5" d="M 752 482 L 752 473 L 745 474 L 746 483 L 752 482"/>
  <line x1="746" y1="483" x2="745" y2="474"/>
  <path class="p5" d="M 752 473 L 750 464 L 743 465 L 745 474 L 752 473"/>
  <line x1="745" y1="474" x2="743" y2="465"/>
  <path class="p5" d="M 757 463 L 755 454 L 749 456 L 750 464 L 757 463"/>
  <path class="p5" d="M 755 454 L 754 445 L 747 447 L 749 456 L 755 454"/>
  <path class="p5" d="M 750 464 L 749 456 L 742 457 L 743 465 L 750 464"/>
  <line x1="743" y1="465" x2="742" y2="457"/>
  <path class="p5" d="M 749 456 L 747 447 L 740 448 L 742 457 L 749 456"/>
  <line x1="742" y1="457" x2="740" y2="448"/>
  <path class="p5" d="M 754 445 L 751 436 L 745 438 L 747 447 L 754 445"/>
  <path class="p5" d="M 751 436 L 749 428 L 742 430 L 745 438 L 751 436"/>
  <path class="p5" d="M 747 447 L 745 438 L 738 440 L 740 448 L 747 447"/>
  <line x1="740" y1="448" x2="738" y2="440"/>
  <path class="p5" d="M 745 438 L 742 430 L 735 432 L 738 440 L 745 438"/>
  <line x1="738" y1="440" x2="735" y2="432"/>
  <path class="p5" d="M 749 428 L 746 419 L 739 421 L 742 430 L 749 428"/>
  <path class="p5" d="M 746 419 L 742 410 L 736 413 L 739 421 L 746 419"/>
  <path class="p5" d="M 742 430 L 739 421 L 733 424 L 735 432 L 742 430"/>
  <line x1="735" y1="432" x2="733" y2="424"/>
  <path class="p5" d="M 739 421 L 736 413 L 729 416 L 733 424 L 739 421"/>
  <line x1="733" y1="424" x2="729" y2="416"/>
  <path class="p5" d="M 742 410 L 738 402 L 732 405 L 736 413 L 742 410"/>
  <path class="p5" d="M 738 402 L 734 393 L 728 397 L 732 405 L 738 402"/>
  <path class="p5" d="M 736 413 L 732 405 L 726 408 L 729 416 L 736 413"/>
  <line x1="729" y1="416" x2="726" y2="408"/>
  <path class="p5" d="M 732 405 L 728 397 L 722 400 L 726 408 L 732 405"/>
  <line x1="726" y1="408" x2="722" y2="400"/>
  <path class="p5" d="M 734 393 L 730 385 L 724 389 L 728 397 L 734 393"/>
  <path class="p5" d="M 730 385 L 725 377 L 720 381 L 724 389 L 730 385"/>
  <path class="p5" d="M 728 397 L 724 389 L 718 392 L 722 400 L 728 397"/>
  <line x1="722" y1="400" x2="718" y2="392"/>
  <path class="p5" d="M 724 389 L 720 381 L 714 385 L 718 392 L 724 389"/>
  <line x1="718" y1="392" x2="714" y2="385"/>
  <path class="p5" d="M 725 377 L 720 370 L 715 373 L 720 381 L 725 377"/>
  <path class="p5" d="M 720 370 L 715 362 L 710 366 L 715 373 L 720 370"/>
  <path class="p5" d="M 720 381 L 715 373 L 709 377 L 714 385 L 720 381"/>
  <line x1="714" y1="385" x2="709" y2="377"/>
  <path class="p5" d="M 715 373 L 710 366 L 704 370 L 709 377 L 715 373"/>
  <line x1="709" y1="377" x2="704" y2="370"/>
  <path class="p5" d="M 715 362 L 710 355 L 704 359 L 710 366 L 715 362"/>
  <path class="p5" d="M 710 355 L 704 348 L 699 352 L 704 359 L 710 355"/>
  <path class="p5" d="M 710 366 L 704 359 L 699 363 L 704 370 L 710 366"/>
  <line x1="704" y1="370" x2="699" y2="363"/>
  <path class="p5" d="M 704 359 L 699 352 L 693 357 L 699 363 L 704 359"/>
  <line x1="699" y1="363" x2="693" y2="357"/>
  <path class="p5" d="M 704 348 L 698 341 L 693 345 L 699 352 L 704 348"/>
  <path class="p5" d="M 698 341 L 691 334 L 686 339 L 693 345 L 698 341"/>
  <path class="p5" d="M 699 352 L 693 345 L 688 350 L 693 357 L 699 352"/>
  <line x1="693" y1="357" x2="688" y2="350"/>
  <path class="p5" d="M 693 345 L 686 339 L 682 344 L 688 350 L 693 345"/>
  <line x1="688" y1="350" x2="682" y2="344"/>
  <path class="p5" d="M 691 334 L 685 328 L 680 333 L 686 339 L 691 334"/>
  <path class="p5" d="M 685 328 L 678 322 L 673 327 L 680 333 L 685 328"/>
  <path class="p5" d="M 686 339 L 680 333 L 675 338 L 682 344 L 686 339"/>
  <line x1="682" y1="344" x2="675" y2="338"/>
  <path class="p5" d="M 680 333 L 673 327 L 669 332 L 675 338 L 680 333"/>
  <line x1="675" y1="338" x2="669" y2="332"/>
  <path class="p5" d="M 678 322 L 671 316 L 666 321 L 673 327 L 678 322"/>
  <path class="p5" d="M 671 316 L 663 310 L 659 316 L 666 321 L 671 316"/>
  <path class="p5" d="M 673 327 L 666 321 L 662 327 L 669 332 L 673 327"/>
  <line x1="669" y1="332" x2="662" y2="327"/>
  <path class="p5" d="M 666 321 L 659 316 L 655 321 L 662 327 L 666 321"/>
  <line x1="662" y1="327" x2="655" y2="321"/>
  <path class="p5" d="M 663 310 L 656 305 L 652 311 L 659 316 L 663 310"/>
  <path class="p5" d="M 656 305 L 648 300 L 644 306 L 652 311 L 656 305"/>
  <path class="p5" d="M 659 316 L 652 311 L 648 316 L 655 321 L 659 316"/>
  <line x1="655" y1="321" x2="648" y2="316"/>
  <path class="p5" d="M 652 311 L 644 306 L 641 312 L 648 316 L 652 311"/>
  <line x1="648" y1="316" x2="641" y2="312"/>
  <path class="p5" d="M 648 300 L 640 295 L 637 301 L 644 306 L 648 300"/>
  <path class="p5" d="M 640 295 L 632 291 L 629 297 L 637 301 L 640 295"/>
  <path class="p5" d="M 644 306 L 637 301 L 633 307 L 641 312 L 644 306"/>
  <line x1="641" y1="312" x2="633" y2="307"/>
  <path class="p5" d="M 637 301 L 629 297 L 626 303 L 633 307 L 637 301"/>
  <line x1="633" y1="307" x2="626" y2="303"/>
  <path class="p5" d="M 632 291 L 624 287 L 621 293 L 629 297 L 632 291"/>
  <path class="p5" d="M 624 287 L 615 283 L 613 290 L 621 293 L 624 287"/>
  <path class="p5" d="M 629 297 L 621 293 L 618 299 L 626 303 L 629 297"/>
  <line x1="626" y1="303" x2="618" y2="299"/>
  <path class="p5" d="M 621 293 L 613 290 L 610 296 L 618 299 L 621 293"/>
  <line x1="618" y1="299" x2="610" y2="296"/>
  <path class="p5" d="M 615 283 L 607 280 L 604 286 L 613 290 L 615 283"/>
  <path class="p5" d="M 607 280 L 598 277 L 596 283 L 604 286 L 607 280"/>
  <path class="p5" d="M 613 290 L 604 286 L 602 293 L 610 296 L 613 290"/>
  <line x1="610" y1="296" x2="602" y2="293"/>
  <path class="p5" d="M 604 286 L 596 283 L 594 290 L 602 293 L 604 286"/>
  <line x1="602" y1="293" x2="594" y2="290"/>
  <path class="p5" d="M 598 277 L 589 274 L 587 281 L 596 283 L 598 277"/>
  <path class="p5" d="M 589 274 L 580 272 L 579 279 L 587 281 L 589 274"/>
  <path class="p5" d="M 596 283 L 587 281 L 585 287 L 594 290 L 596 283"/>
  <line x1="594" y1="290" x2="585" y2="287"/>
  <path class="p5" d="M 587 281 L 579 279 L 577 285 L 585 287 L 587 281"/>
  <line x1="585" y1="287" x2="577" y2="285"/>
  <path class="p5" d="M 580 272 L 571 270 L 570 277 L 579 279 L 580 272"/>
  <path class="p5" d="M 571 270 L 562 268 L 561 275 L 570 277 L 571 270"/>
  <path class="p5" d="M 579 279 L 570 277 L 569 283 L 577 285 L 579 279"/>
  <line x1="577" y1="285" x2="569" y2="283"/>
  <path class="p5" d="M 570 277 L 561 275 L 560 282 L 569 283 L 570 277"/>
  <line x1="569" y1="283" x2="560" y2="282"/>
  <path class="p5" d="M 562 268 L 553 267 L 552 274 L 561 275 L 562 268"/>
  <path class="p5" d="M 553 267 L 544 266 L 543 273 L 552 274 L 553 267"/>
  <path class="p5" d="M 561 275 L 552 274 L 551 281 L 560 282 L 561 275"/>
  <line x1="560" y1="282" x2="551" y2="281"/>
  <path class="p5" d="M 552 274 L 543 273 L 543 280 L 551 281 L 552 274"/>
  <line x1="551" y1="281" x2="543" y2="280"/>
  <path class="p5" d="M 544 266 L 535 266 L 534 272 L 543 273 L 544 266"/>
  <path class="p5" d="M 535 266 L 526 265 L 526 272 L 534 272 L 535 266"/>
  <path class="p5" d="M 543 273 L 534 272 L 534 279 L 543 280 L 543 273"/>
  <line x1="543" y1="280" x2="534" y2="279"/>
  <path class="p5" d="M 534 272 L 526 272 L 526 279 L 534 279 L 534 272"/>
  <line x1="534" y1="279" x2="526" y2="279"/>
  <path class="p5" d="M 526 265 L 516 266 L 517 272 L 526 272 L 526 265"/>
  <path class="p5" d="M 516 266 L 507 266 L 508 273 L 517 272 L 516 266"/>
  <path class="p5" d="M 526 272 L 517 272 L 517 279 L 526 279 L 526 272"/>
  <line x1="526" y1="279" x2="517" y2="279"/>
  <path class="p5" d="M 517 272 L 508 273 L 508 280 L 517 279 L 517 272"/>
  <line x1="517" y1="279" x2="508" y2="280"/>
  <path class="p5" d="M 507 266 L 498 267 L 499 274 L 508 273 L 507 266"/>
  <path class="p5" d="M 498 267 L 489 268 L 490 275 L 499 274 L 498 267"/>
  <path class="p5" d="M 508 273 L 499 274 L 500 281 L 508 280 L 508 273"/>
  <line x1="508" y1="280" x2="500" y2="281"/>
  <path class="p5" d="M 499 274 L 490 275 L 491 282 L 500 281 L 499 274"/>
  <line x1="500" y1="281" x2="491" y2="282"/>
  <path class="p5" d="M 489 268 L 480 270 L 481 277 L 490 275 L 489 268"/>
  <path class="p5" d="M 480 270 L 471 272 L 472 279 L 481 277 L 480 270"/>
  <path class="p5" d="M 490 275 L 481 277 L 482 283 L 491 282 L 490 275"/>
  <line x1="491" y1="282" x2="482" y2="283"/>
  <path class="p5" d="M 481 277 L 472 279 L 474 285 L 482 283 L 481 277"/>
  <line x1="482" y1="283" x2="474" y2="285"/>
  <path class="p5" d="M 471 272 L 462 274 L 464 281 L 472 279 L 471 272"/>
  <path class="p5" d="M 462 274 L 453 277 L 455 283 L 464 281 L 462 274"/>
  <path class="p5" d="M 472 279 L 464 281 L 466 287 L 474 285 L 472 279"/>
  <line x1="474" y1="285" x2="466" y2="287"/>
  <path class="p5" d="M 464 281 L 455 283 L 457 290 L 466 287 L 464 281"/>
  <line x1="466" y1="287" x2="457" y2="290"/>
  <path class="p5" d="M 453 277 L 444 280 L 447 286 L 455 283 L 453 277"/>
  <path class="p5" d="M 444 280 L 436 283 L 438 290 L 447 286 L 444 280"/>
  <path class="p5" d="M 455 283 L 447 286 L 449 293 L 457 290 L 455 283"/>
  <line x1="457" y1="290" x2="449" y2="293"/>
  <path class="p5" d="M 447 286 L 438 290 L 441 296 L 449 293 L 447 286"/>
  <line x1="449" y1="293" x2="441" y2="296"/>
  <path class="p5" d="M 436 283 L 427 287 L 430 293 L 438 290 L 436 283"/>
  <path class="p5" d="M 427 287 L 419 291 L 422 297 L 430 293 L 427 287"/>
  <path class="p5" d="M 438 290 L 430 293 L 433 299 L 441 296 L 438 290"/>
  <line x1="441" y1="296" x2="433" y2="299"/>
  <path class="p5" d="M 430 293 L 422 297 L 425 303 L 433 299 L 430 293"/>
  <line x1="433" y1="299" x2="425" y2="303"/>
  <path class="p5" d="M 419 291 L 411 295 L 414 301 L 422 297 L 419 291"/>
  <path class="p5" d="M 411 295 L 403 300 L 407 306 L 414 301 L 411 295"/>
  <path class="p5" d="M 422 297 L 414 301 L 418 307 L 425 303 L 422 297"/>
  <line x1="425" y1="303" x2="418" y2="307"/>
  <path class="p5" d="M 414 301 L 407 306 L 410 312 L 418 307 L 414 301"/>
  <line x1="418" y1="307" x2="410" y2="312"/>
  <path class="p5" d="M 403 300 L 395 305 L 399 311 L 407 306 L 403 300"/>
  <path class="p5" d="M 395 305 L 388 310 L 392 316 L 399 311 L 395 305"/>
  <path class="p5" d="M 407 306 L 399 311 L 403 316 L 410 312 L 407 306"/>
  <line x1="410" y1="312" x2="403" y2="316"/>
  <path class="p5" d="M 399 311 L 392 316 L 396 321 L 403 316 L 399 311"/>
  <line x1="403" y1="316" x2="396" y2="321"/>
  <path class="p5" d="M 388 310 L 380 316 L 385 321 L 392 316 L 388 310"/>
  <path class="p5" d="M 380 316 L 373 322 L 378 327 L 385 321 L 380 316"/>
  <path class="p5" d="M 392 316 L 385 321 L 389 327 L 396 321 L 392 316"/>
  <line x1="396" y1="321" x2="389" y2="327"/>
  <path class="p5" d="M 385 321 L 378 327 L 382 332 L 389 327 L 385 321"/>
  <line x1="389" y1="327" x2="382" y2="332"/>
  <path class="p5" d="M 373 322 L 366 328 L 371 333 L 378 327 L 373 322"/>
  <path class="p5" d="M 366 328 L 360 334 L 365 339 L 371 333 L 366 328"/>
  <path class="p5" d="M 378 327 L 371 333 L 376 338 L 382 332 L 378 327"/>
  <line x1="382" y1="332" x2="376" y2="338"/>
  <path class="p5" d="M 371 333 L 365 339 L 369 344 L 376 338 L 371 333"/>
  <line x1="376" y1="338" x2="369" y2="344"/>
  <path class="p5" d="M 360 334 L 353 341 L 358 345 L 365 339 L 360 334"/>
  <path class="p5" d="M 353 341 L 347 348 L 352 352 L 358 345 L 353 341"/>
  <path class="p5" d="M 365 339 L 358 345 L 363 350 L 369 344 L 365 339"/>
  <line x1="369" y1="344" x2="363" y2="350"/>
  <path class="p5" d="M 358 345 L 352 352 L 358 357 L 363 350 L 358 345"/>
  <line x1="363" y1="350" x2="358" y2="357"/>
  <path class="p5" d="M 347 348 L 341 355 L 347 359 L 352 352 L 347 348"/>
  <path class="p5" d="M 341 355 L 336 362 L 341 366 L 347 359 L 341 355"/>
  <path class="p5" d="M 352 352 L 347 359 L 352 363 L 358 357 L 352 352"/>
  <line x1="358" y1="357" x2="352" y2="363"/>
  <path class="p5" d="M 347 359 L 341 366 L 347 370 L 352 363 L 347 359"/>
  <line x1="352" y1="363" x2="347" y2="370"/>
  <path class="p5" d="M 336 362 L 331 370 L 336 373 L 341 366 L 336 362"/>
  <path class="p5" d="M 331 370 L 326 377 L 331 381 L 336 373 L 331 370"/>
  <path class="p5" d="M 341 366 L 336 373 L 342 377 L 347 370 L 341 366"/>
  <line x1="347" y1="370" x2="342" y2="377"/>
  <path class="p5" d="M 336 373 L 331 381 L 337 385 L 342 377 L 336 373"/>
  <line x1="342" y1="377" x2="337" y2="385"/>
  <path class="p5" d="M 326 377 L 321 385 L 327 389 L 331 381 L 326 377"/>
  <path class="p5" d="M 321 385 L 317 393 L 323 397 L 327 389 L 321 385"/>
  <path class="p5" d="M 331 381 L 327 389 L 333 392 L 337 385 L 331 381"/>
  <line x1="337" y1="385" x2="333" y2="392"/>
  <path class="p5" d="M 327 389 L 323 397 L 329 400 L 333 392 L 327 389"/>
  <line x1="333" y1="392" x2="329" y2="400"/>
  <path class="p5" d="M 317 393 L 313 402 L 319 405 L 323 397 L 317 393"/>
  <path class="p5" d="M 313 402 L 309 410 L 315 413 L 319 405 L 313 402"/>
  <path class="p5" d="M 323 397 L 319 405 L 325 408 L 329 400 L 323 397"/>
  <line x1="329" y1="400" x2="325" y2="408"/>
  <path class="p5" d="M 319 405 L 315 413 L 322 416 L 325 408 L 319 405"/>
  <line x1="325" y1="408" x2="322" y2="416"/>
  <path class="p5" d="M 309 410 L 305 419 L 312 421 L 315 413 L 309 410"/>
  <path class="p5" d="M 305 419 L 302 428 L 309 430 L 312 421 L 305 419"/>
  <path class="p5" d="M 315 413 L 312 421 L 318 424 L 322 416 L 315 413"/>
  <line x1="322" y1="416" x2="318" y2="424"/>
  <path class="p5" d="M 312 421 L 309 430 L 316 432 L 318 424 L 312 421"/>
  <line x1="318" y1="424" x2="316" y2="432"/>
  <path class="p5" d="M 302 428 L 300 436 L 306 438 L 309 430 L 302 428"/>
  <path class="p5" d="M 300 436 L 297 445 L 304 447 L 306 438 L 300 436"/>
  <path class="p5" d="M 309 430 L 306 438 L 313 440 L 316 432 L 309 430"/>
  <line x1="316" y1="432" x2="313" y2="440"/>
  <path class="p5" d="M 306 438 L 304 447 L 311 448 L 313 440 L 306 438"/>
  <line x1="313" y1="440" x2="311" y2="448"/>
  <path class="p5" d="M 297 445 L 296 454 L 302 456 L 304 447 L 297 445"/>
  <path class="p5" d="M 296 454 L 294 463 L 301 464 L 302 456 L 296 454"/>
  <path class="p5" d="M 304 447 L 302 456 L 309 457 L 311 448 L 304 447"/>
  <line x1="311" y1="448" x2="309" y2="457"/>
  <path class="p5" d="M 302 456 L 301 464 L 308 465 L 309 457 L 302 456"/>
  <line x1="309" y1="457" x2="308" y2="465"/>
  <path class="p5" d="M 294 463 L 293 472 L 299 473 L 301 464 L 294 463"/>
  <path class="p5" d="M 293 472 L 292 482 L 299 482 L 299 473 L 293 472"/>
  <path class="p5" d="M 301 464 L 299 473 L 306 474 L 308 465 L 301 464"/>
  <line x1="308" y1="465" x2="306" y2="474"/>
  <path class="p5" d="M 299 473 L 299 482 L 305 483 L 306 474 L 299 473"/>
  <line x1="306" y1="474" x2="305" y2="483"/>
  <path class="p5" d="M 292 482 L 291 491 L 298 491 L 299 482 L 292 482"/>
  <path class="p5" d="M 291 491 L 291 500 L 298 500 L 298 491 L 291 491"/>
  <path class="p5" d="M 299 482 L 298 491 L 305 491 L 305 483 L 299 482"/>
  <line x1="305" y1="483" x2="305" y2="491"/>
  <path class="p5" d="M 298 491 L 298 500 L 305 500 L 305 491 L 298 491"/>
  <line x1="305" y1="491" x2="305" y2="500"/>
  <path class="p5" d="M 291 500 L 291 509 L 298 509 L 298 500 L 291 500"/>
  <path class="p5" d="M 291 509 L 292 518 L 299 518 L 298 509 L 291 509"/>
  <path class="p5" d="M 298 500 L 298 509 L 305 509 L 305 500 L 298 500"/>
  <line x1="305" y1="500" x2="305" y2="509"/>
  <path class="p5" d="M 298 509 L 299 518 L 305 517 L 305 509 L 298 509"/>
  <line x1="305" y1="509" x2="305" y2="517"/>
  <path class="p5" d="M 292 518 L 293 528 L 299 527 L 299 518 L 292 518"/>
  <path class="p5" d="M 293 528 L 294 537 L 301 536 L 299 527 L 293 528"/>
  <path class="p5" d="M 299 518 L 299 527 L 306 526 L 305 517 L 299 518"/>
  <line x1="305" y1="517" x2="306" y2="526"/>
  <path class="p5" d="M 299 527 L 301 536 L 308 535 L 306 526 L 299 527"/>
  <line x1="306" y1="526" x2="308" y2="535"/>
  <path class="p5" d="M 294 537 L 296 546 L 302 544 L 301 536 L 294 537"/>
  <path class="p5" d="M 296 546 L 297 555 L 304 553 L 302 544 L 296 546"/>
  <path class="p5" d="M 301 536 L 302 544 L 309 543 L 308 535 L 301 536"/>
  <line x1="308" y1="535" x2="309" y2="543"/>
  <path class="p5" d="M 302 544 L 304 553 L 311 552 L 309 543 L 302 544"/>
  <line x1="309" y1="543" x2="311" y2="552"/>
  <path class="p5" d="M 297 555 L 300 564 L 306 562 L 304 553 L 297 555"/>
  <path class="p5" d="M 300 564 L 302 572 L 309 570 L 306 562 L 300 564"/>
  <path class="p5" d="M 304 553 L 306 562 L 313 560 L 311 552 L 304 553"/>
  <line x1="311" y1="552" x2="313" y2="560"/>
  <path class="p5" d="M 306 562 L 309 570 L 316 568 L 313 560 L 306 562"/>
  <line x1="313" y1="560" x2="316" y2="568"/>
  <path class="p5" d="M 302 572 L 305 581 L 312 579 L 309 570 L 302 572"/>
  <path class="p5" d="M 305 581 L 309 590 L 315 587 L 312 579 L 305 581"/>
  <path class="p5" d="M 309 570 L 312 579 L 318 576 L 316 568 L 309 570"/>
  <line x1="316" y1="568" x2="318" y2="576"/>
  <path class="p5" d="M 312 579 L 315 587 L 322 584 L 318 576 L 312 579"/>
  <line x1="318" y1="576" x2="322" y2="584"/>
  <path class="p5" d="M 309 590 L 313 598 L 319 595 L 315 587 L 309 590"/>
  <path class="p5" d="M 313 598 L 317 607 L 323 603 L 319 595 L 313 598"/>
  <path class="p5" d="M 315 587 L 319 595 L 325 592 L 322 584 L 315 587"/>
  <line x1="322" y1="584" x2="325" y2="592"/>
  <path class="p5" d="M 319 595 L 323 603 L 329 600 L 325 592 L 319 595"/>
  <line x1="325" y1="592" x2="329" y2="600"/>
  <path class="p5" d="M 317 607 L 321 615 L 327 611 L 323 603 L 317 607"/>
  <path class="p5" d="M 321 615 L 326 623 L 331 619 L 327 611 L 321 615"/>
  <path class="p5" d="M 323 603 L 327 611 L 333 608 L 329 600 L 323 603"/>
  <line x1="329" y1="600" x2="333" y2="608"/>
  <path class="p5" d="M 327 611 L 331 619 L 337 615 L 333 608 L 327 611"/>
  <line x1="333" y1="608" x2="337" y2="615"/>
  <path class="p5" d="M 326 623 L 331 630 L 336 627 L 331 619 L 326 623"/>
  <path class="p5" d="M 331 630 L 336 638 L 341 634 L 336 627 L 331 630"/>
  <path class="p5" d="M 331 619 L 336 627 L 342 623 L 337 615 L 331 619"/>
  <line x1="337" y1="615" x2="342" y2="623"/>
  <path class="p5" d="M 336 627 L 341 634 L 347 630 L 342 623 L 336 627"/>
  <line x1="342" y1="623" x2="347" y2="630"/>
  <path class="p5" d="M 336 638 L 341 645 L 347 641 L 341 634 L 336 638"/>
  <path class="p5" d="M 341 645 L 347 652 L 352 648 L 347 641 L 341 645"/>
  <path class="p5" d="M 341 634 L 347 641 L 352 637 L 347 630 L 341 634"/>
  <line x1="347" y1="630" x2="352" y2="637"/>
  <path class="p5" d="M 347 641 L 352 648 L 358 643 L 352 637 L 347 641"/>
  <line x1="352" y1="637" x2="358" y2="643"/>
  <path class="p5" d="M 347 652 L 353 659 L 358 655 L 352 648 L 347 652"/>
  <path class="p5" d="M 353 659 L 360 666 L 365 661 L 358 655 L 353 659"/>
  <path class="p5" d="M 352 648 L 358 655 L 363 650 L 358 643 L 352 648"/>
  <line x1="358" y1="643" x2="363" y2="650"/>
  <path class="p5" d="M 358 655 L 365 661 L 369 656 L 363 650 L 358 655"/>
  <line x1="363" y1="650" x2="369" y2="656"/>
  <path class="p5" d="M 360 666 L 366 672 L 371 667 L 365 661 L 360 666"/>
  <path class="p5" d="M 366 672 L 373 678 L 378 673 L 371 667 L 366 672"/>
  <path class="p5" d="M 365 661 L 371 667 L 376 662 L 369 656 L 365 661"/>
  <line x1="369" y1="656" x2="376" y2="662"/>
  <path class="p5" d="M 371 667 L 378 673 L 382 668 L 376 662 L 371 667"/>
  <line x1="376" y1="662" x2="382" y2="668"/>
  <path class="p5" d="M 373 678 L 380 684 L 385 679 L 378 673 L 373 678"/>
  <path class="p5" d="M 380 684 L 388 690 L 392 684 L 385 679 L 380 684"/>
  <path class="p5" d="M 378 673 L 385 679 L 389 673 L 382 668 L 378 673"/>
  <line x1="382" y1="668" x2="389" y2="673"/>
  <path class="p5" d="M 385 679 L 392 684 L 396 679 L 389 673 L 385 679"/>
  <line x1="389" y1="673" x2="396" y2="679"/>
  <path class="p5" d="M 388 690 L 395 695 L 399 689 L 392 684 L 388 690"/>
  <path class="p5" d="M 395 695 L 403 700 L 407 694 L 399 689 L 395 695"/>
  <path class="p5" d="M 392 684 L 399 689 L 403 684 L 396 679 L 392 684"/>
  <line x1="396" y1="679" x2="403" y2="684"/>
  <path class="p5" d="M 399 689 L 407 694 L 410 688 L 403 684 L 399 689"/>
  <line x1="403" y1="684" x2="410" y2="688"/>
  <path class="p5" d="M 403 700 L 411 705 L 414 699 L 407 694 L 403 700"/>
  <path class="p5" d="M 411 705 L 419 709 L 422 703 L 414 699 L 411 705"/>
  <path class="p5" d="M 407 694 L 414 699 L 418 693 L 410 688 L 407 694"/>
  <line x1="410" y1="688" x2="418" y2="693"/>
  <path class="p5" d="M 414 699 L 422 703 L 425 697 L 418 693 L 414 699"/>
  <line x1="418" y1="693" x2="425" y2="697"/>
  <path class="p5" d="M 419 709 L 427 713 L 430 707 L 422 703 L 419 709"/>
  <path class="p5" d="M 427 713 L 436 717 L 438 710 L 430 707 L 427 713"/>
  <path class="p5" d="M 422 703 L 430 707 L 433 701 L 425 697 L 422 703"/>
  <line x1="425" y1="697" x2="433" y2="701"/>
  <path class="p5" d="M 430 707 L 438 710 L 441 704 L 433 701 L 430 707"/>
  <line x1="433" y1="701" x2="441" y2="704"/>
  <path class="p5" d="M 436 717 L 444 720 L 447 714 L 438 710 L 436 717"/>
  <path class="p5" d="M 444 720 L 453 723 L 455 717 L 447 714 L 444 720"/>
  <path class="p5" d="M 438 710 L 447 714 L 449 707 L 441 704 L 438 710"/>
  <line x1="441" y1="704" x2="449" y2="707"/>
  <path class="p5" d="M 447 714 L 455 717 L 457 710 L 449 707 L 447 714"/>
  <line x1="449" y1="707" x2="457" y2="710"/>
  <path class="p5" d="M 453 723 L 462 726 L 464 719 L 455 717 L 453 723"/>
  <path class="p5" d="M 462 726 L 471 728 L 472 721 L 464 719 L 462 726"/>
  <path class="p5" d="M 455 717 L 464 719 L 466 713 L 457 710 L 455 717"/>
  <line x1="457" y1="710" x2="466" y2="713"/>
  <path class="p5" d="M 464 719 L 472 721 L 474 715 L 466 713 L 464 719"/>
  <line x1="466" y1="713" x2="474" y2="715"/>
  <path class="p5" d="M 471 728 L 480 730 L 481 723 L 472 721 L 471 728"/>
  <path class="p5" d="M 480 730 L 489 732 L 490 725 L 481 723 L 480 730"/>
  <path class="p5" d="M 472 721 L 481 723 L 482 717 L 474 715 L 472 721"/>
  <line x1="474" y1="715" x2="482" y2="717"/>
  <path class="p5" d="M 481 723 L 490 725 L 491 718 L 482 717 L 481 723"/>
  <line x1="482" y1="717" x2="491" y2="718"/>
  <path class="p5" d="M 489 732 L 498 733 L 499 726 L 490 725 L 489 732"/>
  <path class="p5" d="M 498 733 L 507 734 L 508 727 L 499 726 L 498 733"/>
  <path class="p5" d="M 490 725 L 499 726 L 500 719 L 491 718 L 490 725"/>
  <line x1="491" y1="718" x2="500" y2="719"/>
  <path class="p5" d="M 499 726 L 508 727 L 508 720 L 500 719 L 499 726"/>
  <line x1="500" y1="719" x2="508" y2="720"/>
  <path class="p5" d="M 507 734 L 516 734 L 517 728 L 508 727 L 507 734"/>
  <path class="p5" d="M 516 734 L 526 735 L 526 728 L 517 728 L 516 734"/>
  <path class="p5" d="M 508 727 L 517 728 L 517 721 L 508 720 L 508 727"/>
  <line x1="508" y1="720" x2="517" y2="721"/>
  <path class="p5" d="M 517 728 L 526 728 L 526 721 L 517 721 L 517 728"/>
  <line x1="517" y1="721" x2="526" y2="721"/>
  <path class="p5" d="M 526 735 L 535 734 L 534 728 L 526 728 L 526 735"/>
  <path class="p5" d="M 535 734 L 544 734 L 543 727 L 534 728 L 535 734"/>
  <path class="p5" d="M 526 728 L 534 728 L 534 721 L 526 721 L 526 728"/>
  <line x1="526" y1="721" x2="534" y2="721"/>
  <path class="p5" d="M 534 728 L 543 727 L 543 720 L 534 721 L 534 728"/>
  <line x1="534" y1="721" x2="543" y2="720"/>
  <path class="p5" d="M 544 734 L 553 733 L 552 726 L 543 727 L 544 734"/>
  <path class="p5" d="M 553 733 L 562 732 L 561 725 L 552 726 L 553 733"/>
  <path class="p5" d="M 543 727 L 552 726 L 551 719 L 543 720 L 543 727"/>
  <line x1="543" y1="720" x2="551" y2="719"/>
  <path class="p5" d="M 552 726 L 561 725 L 560 718 L 551 719 L 552 726"/>
  <line x1="551" y1="719" x2="560" y2="718"/>
  <path class="p5" d="M 562 732 L 571 730 L 570 723 L 561 725 L 562 732"/>
  <path class="p5" d="M 571 730 L 580 728 L 579 721 L 570 723 L 571 730"/>
  <path class="p5" d="M 561 725 L 570 723 L 569 717 L 560 718 L 561 725"/>
  <line x1="560" y1="718" x2="569" y2="717"/>
  <path class="p5" d="M 570 723 L 579 721 L 577 715 L 569 717 L 570 723"/>
  <line x1="569" y1="717" x2="577" y2="715"/>
  <path class="p5" d="M 580 728 L 589 726 L 587 719 L 579 721 L 580 728"/>
  <path class="p5" d="M 589 726 L 598 723 L 596 717 L 587 719 L 589 726"/>
  <path class="p5" d="M 579 721 L 587 719 L 585 713 L 577 715 L 579 721"/>
  <line x1="577" y1="715" x2="585" y2="713"/>
  <path class="p5" d="M 587 719 L 596 717 L 594 710 L 585 713 L 587 719"/>
  <line x1="585" y1="713" x2="594" y2="710"/>
  <path class="p5" d="M 598 723 L 607 720 L 604 714 L 596 717 L 598 723"/>
  <path class="p5" d="M 607 720 L 615 717 L 613 710 L 604 714 L 607 720"/>
  <path class="p5" d="M 596 717 L 604 714 L 602 707 L 594 710 L 596 717"/>
  <line x1="594" y1="710" x2="602" y2="707"/>
  <path class="p5" d="M 604 714 L 613 710 L 610 704 L 602 707 L 604 714"/>
  <line x1="602" y1="707" x2="610" y2="704"/>
  <path class="p5" d="M 615 717 L 624 713 L 621 707 L 613 710 L 615 717"/>
  <path class="p5" d="M 624 713 L 632 709 L 629 703 L 621 707 L 624 713"/>
  <path class="p5" d="M 613 710 L 621 707 L 618 701 L 610 704 L 613 710"/>
  <line x1="610" y1="704" x2="618" y2="701"/>
  <path class="p5" d="M 621 707 L 629 703 L 626 697 L 618 701 L 621 707"/>
  <line x1="618" y1="701" x2="626" y2="697"/>
  <path class="p5" d="M 632 709 L 640 705 L 637 699 L 629 703 L 632 709"/>
  <path class="p5" d="M 640 705 L 648 700 L 644 694 L 637 699 L 640 705"/>
  <path class="p5" d="M 629 703 L 637 699 L 633 693 L 626 697 L 629 703"/>
  <line x1="626" y1="697" x2="633" y2="693"/>
  <path class="p5" d="M 637 699 L 644 694 L 641 688 L 633 693 L 637 699"/>
  <line x1="633" y1="693" x2="641" y2="688"/>
  <path class="p5" d="M 648 700 L 656 695 L 652 689 L 644 694 L 648 700"/>
  <path class="p5" d="M 656 695 L 663 690 L 659 684 L 652 689 L 656 695"/>
  <path class="p5" d="M 644 694 L 652 689 L 648 684 L 641 688 L 644 694"/>
  <line x1="641" y1="688" x2="648" y2="684"/>
  <path class="p5" d="M 652 689 L 659 684 L 655 679 L 648 684 L 652 689"/>
  <line x1="648" y1="684" x2="655" y2="679"/>
  <path class="p5" d="M 663 690 L 671 684 L 666 679 L 659 684 L 663 690"/>
  <path class="p5" d="M 671 684 L 678 678 L 673 673 L 666 679 L 671 684"/>
  <path class="p5" d="M 659 684 L 666 679 L 662 673 L 655 679 L 659 684"/>
  <line x1="655" y1="679" x2="662" y2="673"/>
  <path class="p5" d="M 666 679 L 673 673 L 669 668 L 662 673 L 666 679"/>
  <line x1="662" y1="673" x2="669" y2="668"/>
  <path class="p5" d="M 678 678 L 685 672 L 680 667 L 673 673 L 678 678"/>
  <path class="p5" d="M 685 672 L 691 666 L 686 661 L 680 667 L 685 672"/>
  <path class="p5" d="M 673 673 L 680 667 L 675 662 L 669 668 L 673 673"/>
  <line x1="669" y1="668" x2="675" y2="662"/>
  <path class="p5" d="M 680 667 L 686 661 L 682 656 L 675 662 L 680 667"/>
  <line x1="675" y1="662" x2="682" y2="656"/>
  <path class="p5" d="M 691 666 L 698 659 L 693 655 L 686 661 L 691 666"/>
  <path class="p5" d="M 698 659 L 704 652 L 699 648 L 693 655 L 698 659"/>
  <path class="p5" d="M 686 661 L 693 655 L 688 650 L 682 656 L 686 661"/>
  <line x1="682" y1="656" x2="688" y2="650"/>
  <path class="p5" d="M 693 655 L 699 648 L 693 643 L 688 650 L 693 655"/>
  <line x1="688" y1="650" x2="693" y2="643"/>
  <path class="p5" d="M 704 652 L 710 645 L 704 641 L 699 648 L 704 652"/>
  <path class="p5" d="M 710 645 L 715 638 L 710 634 L 704 641 L 710 645"/>
  <path class="p5" d="M 699 648 L 704 641 L 699 637 L 693 643 L 699 648"/>
  <line x1="693" y1="643" x2="699" y2="637"/>
  <path class="p5" d="M 704 641 L 710 634 L 704 630 L 699 637 L 704 641"/>
  <line x1="699" y1="637" x2="704" y2="630"/>
  <path class="p5" d="M 715 638 L 720 630 L 715 627 L 710 634 L 715 638"/>
  <path class="p5" d="M 720 630 L 725 623 L 720 619 L 715 627 L 720 630"/>
  <path class="p5" d="M 710 634 L 715 627 L 709 623 L 704 630 L 710 634"/>
  <line x1="704" y1="630" x2="709" y2="623"/>
  <path class="p5" d="M 715 627 L 720 619 L 714 615 L 709 623 L 715 627"/>
  <line x1="709" y1="623" x2="714" y2="615"/>
  <path class="p5" d="M 725 623 L 730 615 L 724 611 L 720 619 L 725 623"/>
  <path class="p5" d="M 730 615 L 734 607 L 728 603 L 724 611 L 730 615"/>
  <path class="p5" d="M 720 619 L 724 611 L 718 608 L 714 615 L 720 619"/>
  <line x1="714" y1="615" x2="718" y2="608"/>
  <path class="p5" d="M 724 611 L 728 603 L 722 600 L 718 608 L 724 611"/>
  <line x1="718" y1="608" x2="722" y2="600"/>
  <path class="p5" d="M 734 607 L 738 598 L 732 595 L 728 603 L 734 607"/>
  <path class="p5" d="M 738 598 L 742 590 L 736 587 L 732 595 L 738 598"/>
  <path class="p5" d="M 728 603 L 732 595 L 726 592 L 722 600 L 728 603"/>
  <line x1="722" y1="600" x2="726" y2="592"/>
  <path class="p5" d="M 732 595 L 736 587 L 729 584 L 726 592 L 732 595"/>
  <line x1="726" y1="592" x2="729" y2="584"/>
  <path class="p5" d="M 742 590 L 746 581 L 739 579 L 736 587 L 742 590"/>
  <path class="p5" d="M 746 581 L 749 572 L 742 570 L 739 579 L 746 581"/>
  <path class="p5" d="M 736 587 L 739 579 L 733 576 L 729 584 L 736 587"/>
  <line x1="729" y1="584" x2="733" y2="576"/>
  <path class="p5" d="M 739 579 L 742 570 L 735 568 L 733 576 L 739 579"/>
  <line x1="733" y1="576" x2="735" y2="568"/>
  <path class="p5" d="M 749 572 L 751 564 L 745 562 L 742 570 L 749 572"/>
  <path class="p5" d="M 751 564 L 754 555 L 747 553 L 745 562 L 751 564"/>
  <path class="p5" d="M 742 570 L 745 562 L 738 560 L 735 568 L 742 570"/>
  <line x1="735" y1="568" x2="738" y2="560"/>
  <path class="p5" d="M 745 562 L 747 553 L 740 552 L 738 560 L 745 562"/>
  <line x1="738" y1="560" x2="740" y2="552"/>
  <path class="p5" d="M 754 555 L 755 546 L 749 544 L 747 553 L 754 555"/>
  <path class="p5" d="M 755 546 L 757 537 L 750 536 L 749 544 L 755 546"/>
  <path class="p5" d="M 747 553 L 749 544 L 742 543 L 740 552 L 747 553"/>
  <line x1="740" y1="552" x2="742" y2="543"/>
  <path class="p5" d="M 749 544 L 750 536 L 743 535 L 742 543 L 749 544"/>
  <line x1="742" y1="543" x2="743" y2="535"/>
  <path class="p5" d="M 757 537 L 758 528 L 752 527 L 750 536 L 757 537"/>
  <path class="p5" d="M 758 528 L 759 518 L 752 518 L 752 527 L 758 528"/>
  <path class="p5" d="M 750 536 L 752 527 L 745 526 L 743 535 L 750 536"/>
  <line x1="743" y1="535" x2="745" y2="526"/>
  <path class="p5" d="M 752 527 L 752 518 L 746 517 L 745 526 L 752 527"/>
  <line x1="745" y1="526" x2="746" y2="517"/>
  <path class="p5" d="M 759 518 L 760 509 L 753 509 L 752 518 L 759 518"/>
  <path class="p5" d="M 760 509 L 760 500 L 753 500 L 753 509 L 760 509"/>
  <path class="p5" d="M 752 518 L 753 509 L 746 509 L 746 517 L 752 518"/>
  <line x1="746" y1="517" x2="746" y2="509"/>
  <path class="p5" d="M 753 509 L 753 500 L 746 500 L 746 509 L 753 509"/>
  <line x1="746" y1="509" x2="746" y2="500"/>

</svg>