<svg width="951" height="1000" xmlns="http://www.w3.org/2000/svg" version="1.1">


<!-- internal style sheet -->
<style type="text/css"><![CDATA[
 rect.background{fill:white}
 rect{fill:none; stroke:rgb(25,25,25); stroke-width:2}
 text{font-family:Helvetica; text-anchor:middle; fill:rgb(25,25,25)}
 line{stroke:rgb(25,25,25); stroke-width:4}
 path{fill:none; stroke:rgb(25,25,25); stroke-width:2}
 circle{fill:white; stroke:black; stroke-width:2}

 path.p0{fill:rgb(0,102,255); stroke:rgb(25,25,25); stroke-width:2}
 path.ps0{fill:rgb(0,77,191); stroke:rgb(20,20,20); stroke-width:2}
 rect.r0{fill:rgb(0,102,255); stroke:rgb(25,25,25); stroke-width:2}
]]></style>

 <rect class="background" width="951" height="1000"/>
  <!-- cells -->
  <path class="p0" d="M 875 500 L 570 80 L 502 290 L 654 500 L 875 500"/>
  <line x1="875" y1="500" x2="570" y2="80"/>
  <line x1="654" y1="500" x2="502" y2="290"/>
  <path class="p0" d="M 570 80 L 76 240 L 255 370 L 502 290 L 570 80"/>
  <line x1="570" y1="80" x2="76" y2="240"/>
  <line x1="502" y1="290" x2="255" y2="370"/>
  <path class="p0" d="M 76 240 L 76 760 L 255 630 L 255 370 L 76 240"/>
  <line x1="76" y1="240" x2="76" y2="760"/>
  <line x1="255" y1="370" x2="255" y2="630"/>
  <path class="p0" d="M 76 760 L 570 920 L 502 710 L 255 630 L 76 760"/>
  <line x1="76" y1="760" x2="570" y2="920"/>
  <line x1="255" y1="630" x2="502" y2="710"/>
  <path class="p0" d="M 570 920 L 875 500 L 654 500 L 502 710 L 570 920"/>
  <line x1="570" y1="920" x2="875" y2="500"/>
  <line x1="502" y1="710" x2="654" y2="500"/>

</svg>